<?xml version="1.0" encoding="utf-8"?>
<!-- Generator: Adobe Illustrator 23.1.1, SVG Export Plug-In . SVG Version: 6.00 Build 0)  -->
<svg version="1.1" id="Layer_2" xmlns="http://www.w3.org/2000/svg" xmlns:xlink="http://www.w3.org/1999/xlink" x="0px" y="0px"
	 viewBox="0 0 135.1 165.4" style="enable-background:new 0 0 135.1 165.4;" xml:space="preserve">
<style type="text/css">
	.st0{fill:#FFFFFF;}
</style>
<g>
	<path class="st0" d="M12.9,63.6c0.4,0.8,0.8,1.6,1.2,2.4C13.7,65.1,13.3,64.4,12.9,63.6z"/>
	<path class="st0" d="M19,74.1c-0.9-1.3-1.7-2.5-2.4-3.7C17.3,71.6,18.1,72.8,19,74.1z"/>
	<path class="st0" d="M71.1,165.3c-0.3,0-10.6,1.2-21.4-5.8c-8-5.3-16.9-19.2-18.4-20.9c-0.2-0.2-0.5-0.4-0.7-0.7c0,0,0,0,0,0
		s-14.2,2.7-16.9,2.1c-2.7-0.7-15.4-19.9-13.6-24.7c1.8-4.8,10.7-8.4,9.5-19.9l0,0C7.2,84.7,6.5,73.4,8.1,62.9c1.8,4,4.8,9.7,9,15.5
		c10.5,14.3,23.9,22.1,38.7,22.5c2.4,0.1,4.9,0,7.4-0.3C67.4,134.8,71.1,165.3,71.1,165.3z"/>
	<g>
		<path class="st0" d="M62.7,96.5c-2.3,0.3-4.6,0.4-6.8,0.3c-4.7-0.1-8.9-1.1-12.8-2.5c-0.9-0.3-1.7-0.7-2.5-1
			c-7.5-3.4-13.4-8.8-18-14.5c-0.5-0.6-1-1.3-1.5-1.9c-0.7-1-1.4-1.9-2.1-2.8c-0.9-1.3-1.7-2.5-2.4-3.7c-0.2-0.3-0.4-0.6-0.5-0.9
			c-0.4-0.6-0.7-1.2-1-1.8c-0.3-0.6-0.6-1.2-0.9-1.7c-0.4-0.8-0.8-1.6-1.2-2.4c0,0,0,0,0,0c-0.2-0.5-0.5-1-0.7-1.5
			c-0.2-0.5-0.4-0.9-0.6-1.3c-1.3-3-2-4.9-2-4.9c4.9-17.9,18-32.2,43.8-35.3L62.7,96.5z"/>
	</g>
</g>
<g>
	<path class="st0" d="M127.3,107c-2.4,1.3-16.9,2.1-16.9,2.1s0,0,0,0c-0.2,0.3-0.3,0.6-0.5,0.8c-1.1,2-6.3,17.7-12.8,24.7
		c-8.7,9.5-19.1,10.8-19.3,10.8c0,0-3.7-30.5-7.9-64.8c17.1-2.1,30.3-12.5,38.3-30.2c3.4-7.5,5.1-14.7,6-19.6
		c4.1,9.8,6.1,20.9,6.4,32l0,0c1.6,11.4,11.1,12.8,14,17C137.4,84,129.7,105.7,127.3,107z"/>
	<g>
		<path class="st0" d="M111,24.3c0,0-3.6,47.6-41.7,52.3L60,0.5c3.7-0.5,7.3-0.6,10.6-0.5c12.9,0.4,22.9,4.8,30.5,11.6
			c0.7,0.7,1.4,1.3,2.1,2c1,1,2,2.1,2.9,3.3c0.6,0.8,1.2,1.5,1.8,2.3C109,20.9,110.1,22.6,111,24.3z"/>
	</g>
</g>
</svg>
