<?xml version="1.0" encoding="utf-8"?>
<!-- Generator: Adobe Illustrator 23.1.1, SVG Export Plug-In . SVG Version: 6.00 Build 0)  -->
<svg version="1.1" id="Layer_1" xmlns="http://www.w3.org/2000/svg" xmlns:xlink="http://www.w3.org/1999/xlink" x="0px" y="0px"
	 viewBox="0 0 100 100" style="enable-background:new 0 0 100 100;" xml:space="preserve">
<style type="text/css">
	.st0{fill:#FFFFFF;}
</style>
<g>
	<g>
		<path class="st0" d="M13.7,68.7c0.9-2.8,5.9-5.2,4.9-11.8l0,0c-1.7-6.2-2.5-12.7-1.9-18.8c1.3,2.6,3.5,6.3,6.6,9.8
			c7.4,8.5,16.6,12,26.4,10.2c3.5,19.7,6.6,37.3,6.6,37.3c-0.1,0-6.1,1.1-12.6-2.7c-4.8-2.8-10.3-10.6-11.3-11.5
			c-0.1-0.1-0.3-0.2-0.4-0.4l0,0c0,0-8.2,2-9.7,1.7C20.8,82.2,12.8,71.5,13.7,68.7z"/>
		<g>
			<path class="st0" d="M18.2,30.6c0.2-0.5,0.4-1,0.6-1.6c0.3-0.8,0.7-1.6,1-2.3c0.3-0.5,0.6-1,0.8-1.5c3.1-5.1,7.9-9.2,14.9-11.6
				c1.8-0.6,3.9-1.2,6-1.5l7.7,43.8c-21.9,3.9-32-21.9-32-21.9C17.5,32.8,17.9,31.7,18.2,30.6z"/>
		</g>
	</g>
</g>
</svg>
