<?xml version="1.0" encoding="utf-8"?>
<!-- Generator: Adobe Illustrator 23.1.1, SVG Export Plug-In . SVG Version: 6.00 Build 0)  -->
<svg version="1.1" id="Layer_1" xmlns="http://www.w3.org/2000/svg" xmlns:xlink="http://www.w3.org/1999/xlink" x="0px" y="0px"
	 viewBox="0 0 100 100" style="enable-background:new 0 0 100 100;" xml:space="preserve">
<style type="text/css">
	.st0{fill:#FFFFFF;}
</style>
<g>
	<g>
		<path class="st0" d="M85.9,66.2c-1.3,0.8-9.7,1.7-9.7,1.7l0,0c-0.1,0.2-0.2,0.4-0.3,0.5c-0.6,1.2-3.1,10.4-6.7,14.7
			c-4.7,5.8-10.8,6.8-10.9,6.8c0,0-3.1-17.5-6.6-37.3c9.8-1.7,17.2-8.2,21.3-18.7c1.7-4.4,2.5-8.7,2.9-11.5
			c2.7,5.5,4.2,11.9,4.7,18.3l0,0c1.3,6.5,6.8,7.1,8.6,9.4C91.1,52.6,87.3,65.4,85.9,66.2z"/>
		<g>
			<path class="st0" d="M74,18.8c0,0-0.7,27.7-22.6,31.5L43.7,6.6C45.8,6.2,48,6,49.9,6c7.5-0.2,13.4,2.1,18,5.8
				c0.4,0.4,0.8,0.7,1.3,1.1c0.6,0.5,1.2,1.2,1.8,1.8c0.4,0.4,0.7,0.8,1.1,1.3C72.7,16.9,73.4,17.9,74,18.8z"/>
		</g>
	</g>
</g>
</svg>
